<mxfile host="Electron" modified="2025-02-22T09:46:35.994Z" agent="Mozilla/5.0 (Windows NT 10.0; Win64; x64) AppleWebKit/537.36 (KHTML, like Gecko) draw.io/24.2.5 Chrome/120.0.6099.109 Electron/28.1.0 Safari/537.36" etag="GgIXFrlGVD567NJgYLNv" version="24.2.5" type="device">
  <diagram name="Page-1" id="u1qnRuNxPlAl-B84gO9w">
    <mxGraphModel dx="1434" dy="844" grid="1" gridSize="10" guides="1" tooltips="1" connect="1" arrows="1" fold="1" page="1" pageScale="1" pageWidth="850" pageHeight="1100" math="0" shadow="0">
      <root>
        <mxCell id="0" />
        <mxCell id="1" parent="0" />
        <mxCell id="kl3SXP3T8YXwKnQLSF2C-1" value="Quiz&lt;div&gt;&lt;br&gt;&lt;/div&gt;&lt;div&gt;Id (int)&lt;/div&gt;&lt;div&gt;QuizName (string)&lt;/div&gt;&lt;div&gt;Description (string)&lt;/div&gt;&lt;div&gt;AuthorId(int) --UserId&lt;/div&gt;&lt;div&gt;Author (User)&lt;/div&gt;&lt;div&gt;Questions&lt;/div&gt;&lt;div&gt;(QuizQuestion[])&lt;/div&gt;&lt;div&gt;&lt;br&gt;&lt;/div&gt;" style="rounded=0;whiteSpace=wrap;html=1;" vertex="1" parent="1">
          <mxGeometry x="120" y="100" width="160" height="160" as="geometry" />
        </mxCell>
        <mxCell id="kl3SXP3T8YXwKnQLSF2C-2" value="&lt;div&gt;User&lt;/div&gt;&lt;div&gt;&lt;br&gt;&lt;/div&gt;&lt;div&gt;Id (int)&lt;/div&gt;&lt;div&gt;FirstName (string)&lt;/div&gt;&lt;div&gt;LastName (string)&lt;/div&gt;&lt;div&gt;QuizAttempts&lt;/div&gt;&lt;div&gt;(QuizAttempt[])&lt;/div&gt;" style="rounded=0;whiteSpace=wrap;html=1;" vertex="1" parent="1">
          <mxGeometry x="560" y="100" width="150" height="160" as="geometry" />
        </mxCell>
        <mxCell id="kl3SXP3T8YXwKnQLSF2C-3" value="QuizAttempt&lt;div&gt;Id (int)&lt;/div&gt;&lt;div&gt;QuizId(int)&lt;/div&gt;&lt;div&gt;UserId(int)&lt;/div&gt;&lt;div&gt;StartedAt (datetime)&lt;/div&gt;&lt;div&gt;FinishAt (datetime)&lt;/div&gt;&lt;div&gt;QuizResult (QuizResult?)&lt;/div&gt;&lt;div&gt;QuizAnswers(QuizAnswer[])&lt;/div&gt;" style="rounded=0;whiteSpace=wrap;html=1;" vertex="1" parent="1">
          <mxGeometry x="120" y="360" width="160" height="170" as="geometry" />
        </mxCell>
        <mxCell id="kl3SXP3T8YXwKnQLSF2C-4" value="QuizQuestion&lt;div&gt;&lt;br&gt;&lt;/div&gt;&lt;div&gt;Id (int)&lt;/div&gt;&lt;div&gt;QuizId(int)&lt;/div&gt;&lt;div&gt;Content (string)&lt;/div&gt;&lt;div&gt;RightAnswer (string)&lt;/div&gt;&lt;div&gt;Options (string[])&lt;/div&gt;" style="rounded=0;whiteSpace=wrap;html=1;" vertex="1" parent="1">
          <mxGeometry x="560" y="360" width="150" height="170" as="geometry" />
        </mxCell>
        <mxCell id="kl3SXP3T8YXwKnQLSF2C-5" value="QuizAnswer&lt;div&gt;&lt;br&gt;&lt;/div&gt;&lt;div&gt;Id (int)&lt;/div&gt;&lt;div&gt;QuizAttemptId (int)&lt;/div&gt;&lt;div&gt;QuestionId (int)&lt;/div&gt;&lt;div&gt;Content (string)&lt;/div&gt;&lt;div&gt;IsCorrect (bool)&lt;/div&gt;" style="rounded=0;whiteSpace=wrap;html=1;" vertex="1" parent="1">
          <mxGeometry x="560" y="600" width="150" height="150" as="geometry" />
        </mxCell>
        <mxCell id="kl3SXP3T8YXwKnQLSF2C-6" value="QuizResult&lt;div&gt;&lt;br&gt;&lt;/div&gt;&lt;div&gt;Id (int)&lt;/div&gt;&lt;div&gt;QuizAttemptId (int)&lt;/div&gt;&lt;div&gt;Score(int)&lt;/div&gt;&lt;div&gt;Comment (string)&lt;/div&gt;" style="rounded=0;whiteSpace=wrap;html=1;" vertex="1" parent="1">
          <mxGeometry x="120" y="600" width="160" height="150" as="geometry" />
        </mxCell>
        <mxCell id="kl3SXP3T8YXwKnQLSF2C-12" value="" style="endArrow=classic;startArrow=classic;html=1;rounded=0;entryX=0.008;entryY=0.564;entryDx=0;entryDy=0;entryPerimeter=0;exitX=1.008;exitY=0.571;exitDx=0;exitDy=0;exitPerimeter=0;" edge="1" parent="1" source="kl3SXP3T8YXwKnQLSF2C-1" target="kl3SXP3T8YXwKnQLSF2C-2">
          <mxGeometry width="50" height="50" relative="1" as="geometry">
            <mxPoint x="310" y="210" as="sourcePoint" />
            <mxPoint x="620" y="410" as="targetPoint" />
          </mxGeometry>
        </mxCell>
        <mxCell id="kl3SXP3T8YXwKnQLSF2C-13" value="1" style="text;html=1;align=center;verticalAlign=middle;whiteSpace=wrap;rounded=0;" vertex="1" parent="1">
          <mxGeometry x="500" y="170" width="60" height="30" as="geometry" />
        </mxCell>
        <mxCell id="kl3SXP3T8YXwKnQLSF2C-14" value="M" style="text;html=1;align=center;verticalAlign=middle;whiteSpace=wrap;rounded=0;" vertex="1" parent="1">
          <mxGeometry x="280" y="170" width="60" height="30" as="geometry" />
        </mxCell>
        <mxCell id="kl3SXP3T8YXwKnQLSF2C-16" value="" style="endArrow=classic;startArrow=classic;html=1;rounded=0;entryX=0.5;entryY=1;entryDx=0;entryDy=0;exitX=0.5;exitY=0;exitDx=0;exitDy=0;" edge="1" parent="1" source="kl3SXP3T8YXwKnQLSF2C-3" target="kl3SXP3T8YXwKnQLSF2C-1">
          <mxGeometry width="50" height="50" relative="1" as="geometry">
            <mxPoint x="570" y="460" as="sourcePoint" />
            <mxPoint x="620" y="410" as="targetPoint" />
          </mxGeometry>
        </mxCell>
        <mxCell id="kl3SXP3T8YXwKnQLSF2C-17" value="1" style="text;html=1;align=center;verticalAlign=middle;whiteSpace=wrap;rounded=0;" vertex="1" parent="1">
          <mxGeometry x="200" y="260" width="60" height="30" as="geometry" />
        </mxCell>
        <mxCell id="kl3SXP3T8YXwKnQLSF2C-18" value="M" style="text;html=1;align=center;verticalAlign=middle;whiteSpace=wrap;rounded=0;" vertex="1" parent="1">
          <mxGeometry x="200" y="330" width="60" height="30" as="geometry" />
        </mxCell>
        <mxCell id="kl3SXP3T8YXwKnQLSF2C-19" value="" style="endArrow=classic;startArrow=classic;html=1;rounded=0;entryX=0.5;entryY=0;entryDx=0;entryDy=0;exitX=0.5;exitY=1;exitDx=0;exitDy=0;" edge="1" parent="1" target="kl3SXP3T8YXwKnQLSF2C-5">
          <mxGeometry width="50" height="50" relative="1" as="geometry">
            <mxPoint x="634.5" y="525" as="sourcePoint" />
            <mxPoint x="634.5" y="625" as="targetPoint" />
          </mxGeometry>
        </mxCell>
        <mxCell id="kl3SXP3T8YXwKnQLSF2C-20" value="" style="endArrow=classic;startArrow=classic;html=1;rounded=0;entryX=0;entryY=0.75;entryDx=0;entryDy=0;exitX=1;exitY=1;exitDx=0;exitDy=0;" edge="1" parent="1" source="kl3SXP3T8YXwKnQLSF2C-18" target="kl3SXP3T8YXwKnQLSF2C-2">
          <mxGeometry width="50" height="50" relative="1" as="geometry">
            <mxPoint x="410" y="290" as="sourcePoint" />
            <mxPoint x="543" y="246.98000000000002" as="targetPoint" />
          </mxGeometry>
        </mxCell>
        <mxCell id="kl3SXP3T8YXwKnQLSF2C-21" value="" style="endArrow=classic;startArrow=classic;html=1;rounded=0;entryX=0;entryY=0;entryDx=0;entryDy=0;exitX=1;exitY=0.75;exitDx=0;exitDy=0;" edge="1" parent="1" source="kl3SXP3T8YXwKnQLSF2C-1" target="kl3SXP3T8YXwKnQLSF2C-4">
          <mxGeometry width="50" height="50" relative="1" as="geometry">
            <mxPoint x="450" y="380" as="sourcePoint" />
            <mxPoint x="730" y="245" as="targetPoint" />
          </mxGeometry>
        </mxCell>
        <mxCell id="kl3SXP3T8YXwKnQLSF2C-22" value="1" style="text;html=1;align=center;verticalAlign=middle;whiteSpace=wrap;rounded=0;" vertex="1" parent="1">
          <mxGeometry x="490" y="210" width="60" height="30" as="geometry" />
        </mxCell>
        <mxCell id="kl3SXP3T8YXwKnQLSF2C-23" value="M" style="text;html=1;align=center;verticalAlign=middle;whiteSpace=wrap;rounded=0;" vertex="1" parent="1">
          <mxGeometry x="280" y="350" width="60" height="30" as="geometry" />
        </mxCell>
        <mxCell id="kl3SXP3T8YXwKnQLSF2C-24" value="M" style="text;html=1;align=center;verticalAlign=middle;whiteSpace=wrap;rounded=0;" vertex="1" parent="1">
          <mxGeometry x="270" y="240" width="60" height="30" as="geometry" />
        </mxCell>
        <mxCell id="kl3SXP3T8YXwKnQLSF2C-25" value="1" style="text;html=1;align=center;verticalAlign=middle;whiteSpace=wrap;rounded=0;" vertex="1" parent="1">
          <mxGeometry x="510" y="350" width="60" height="30" as="geometry" />
        </mxCell>
        <mxCell id="kl3SXP3T8YXwKnQLSF2C-26" value="" style="endArrow=classic;startArrow=classic;html=1;rounded=0;entryX=0.5;entryY=1;entryDx=0;entryDy=0;exitX=0.5;exitY=0;exitDx=0;exitDy=0;" edge="1" parent="1" source="kl3SXP3T8YXwKnQLSF2C-6" target="kl3SXP3T8YXwKnQLSF2C-3">
          <mxGeometry width="50" height="50" relative="1" as="geometry">
            <mxPoint x="210" y="550" as="sourcePoint" />
            <mxPoint x="210" y="450" as="targetPoint" />
          </mxGeometry>
        </mxCell>
        <mxCell id="kl3SXP3T8YXwKnQLSF2C-27" value="1" style="text;html=1;align=center;verticalAlign=middle;whiteSpace=wrap;rounded=0;" vertex="1" parent="1">
          <mxGeometry x="190" y="530" width="60" height="30" as="geometry" />
        </mxCell>
        <mxCell id="kl3SXP3T8YXwKnQLSF2C-28" value="1" style="text;html=1;align=center;verticalAlign=middle;whiteSpace=wrap;rounded=0;" vertex="1" parent="1">
          <mxGeometry x="190" y="570" width="60" height="30" as="geometry" />
        </mxCell>
        <mxCell id="kl3SXP3T8YXwKnQLSF2C-29" value="" style="endArrow=classic;startArrow=classic;html=1;rounded=0;entryX=0;entryY=0;entryDx=0;entryDy=0;exitX=1;exitY=0.829;exitDx=0;exitDy=0;exitPerimeter=0;" edge="1" parent="1" source="kl3SXP3T8YXwKnQLSF2C-3" target="kl3SXP3T8YXwKnQLSF2C-5">
          <mxGeometry width="50" height="50" relative="1" as="geometry">
            <mxPoint x="400" y="570" as="sourcePoint" />
            <mxPoint x="680" y="705" as="targetPoint" />
          </mxGeometry>
        </mxCell>
        <mxCell id="kl3SXP3T8YXwKnQLSF2C-31" value="1" style="text;html=1;align=center;verticalAlign=middle;whiteSpace=wrap;rounded=0;" vertex="1" parent="1">
          <mxGeometry x="280" y="480" width="60" height="30" as="geometry" />
        </mxCell>
        <mxCell id="kl3SXP3T8YXwKnQLSF2C-32" value="M" style="text;html=1;align=center;verticalAlign=middle;whiteSpace=wrap;rounded=0;" vertex="1" parent="1">
          <mxGeometry x="510" y="560" width="60" height="30" as="geometry" />
        </mxCell>
      </root>
    </mxGraphModel>
  </diagram>
</mxfile>
